<svg xmlns="http://www.w3.org/2000/svg" viewBox="0 0 320 117"><rect fill="#ff3300" width="320" height="117"/><path fill="#ffffff" d="M215.622,37.617c0-1.292-0.87-2.518-2.489-2.518h-1.887v5.073h1.887C214.774,40.172,215.645,38.916,215.622,37.617zM212.328,39.192v-3.113h0.791c0.921,0,1.423,0.733,1.423,1.545c0,0.813-0.486,1.568-1.423,1.568H212.328zM241.255,40.259c1.538,0,2.606-1.081,2.606-2.627c0-1.706-1.256-2.62-2.584-2.62c-1.35,0-2.605,0.907-2.605,2.62C238.672,39.345,239.899,40.259,241.255,40.259zM241.277,36.013c0.791,0,1.503,0.537,1.503,1.618c0,1.11-0.719,1.633-1.509,1.633c-0.813,0-1.503-0.522-1.503-1.633C239.768,36.558,240.479,36.013,241.277,36.013zM228.411,39.308h-0.719v-3.375h0.66v-0.842h-2.409v0.842h0.66v3.375h-0.719v0.863h2.526V39.308zM198.379,40.237c1.074,0,2.01-0.617,2.01-1.757v-3.389h-1.074v3.367c0,0.544-0.435,0.82-0.936,0.82c-0.5,0-0.943-0.276-0.943-0.82v-3.367h-1.089v3.389C196.347,39.62,197.305,40.237,198.379,40.237zM106.997,37.168c-0.529-0.058-0.972-0.16-0.972-0.61c0-0.392,0.428-0.624,0.863-0.624c0.436,0,0.864,0.174,0.922,0.588h1.016c0-1.139-0.987-1.538-1.938-1.538c-1.008,0-1.93,0.472-1.93,1.596c0,1.052,0.929,1.364,1.851,1.444c0.486,0.036,1.11,0.087,1.11,0.667c0,0.53-0.522,0.639-0.973,0.639c-0.493,0-1.001-0.196-1.023-0.66h-1.038c0,1.11,1.052,1.611,2.068,1.611c1.001-0.022,2.039-0.392,2.039-1.589C108.993,37.501,108.071,37.262,106.997,37.168zM94.471,39.185h-2.075v-1.161h1.887v-0.951h-1.887v-1.031h2.017v-0.951H91.3v5.08h3.171V39.185zM121.853,39.308h-0.719v-3.375h0.66v-0.842h-2.409v0.842h0.66v3.375h-0.719v0.863h2.526V39.308zM170.047,39.33c-0.494,0-1.001-0.196-1.023-0.66h-1.038c0,1.11,1.052,1.611,2.069,1.611c1.001-0.022,2.039-0.392,2.039-1.589c0-1.19-0.921-1.43-1.995-1.524c-0.53-0.058-0.972-0.16-0.972-0.61c0-0.392,0.428-0.624,0.863-0.624c0.436,0,0.864,0.174,0.922,0.588h1.016c0-1.139-0.987-1.538-1.938-1.538c-1.008,0-1.93,0.472-1.93,1.596c0,1.052,0.929,1.364,1.851,1.444c0.486,0.036,1.11,0.087,1.11,0.667C171.019,39.221,170.497,39.33,170.047,39.33zM183.552,40.172h1.052v-4.137h1.35v-0.943h-3.759v0.943h1.357V40.172zM148.871,37.269l2.874,2.917h0.327v-5.094h-1.089v2.881l-2.852-2.903h-0.341v5.102h1.081V37.269zM134.792,40.237c0.973,0,1.88-0.428,2.264-1.452c0.167-0.465,0.181-0.936,0.152-1.422h-2.38v0.914h1.386c-0.218,0.762-0.726,0.972-1.423,0.972c-0.907,0-1.488-0.653-1.488-1.618c0-0.907,0.537-1.626,1.488-1.626c0.581,0,0.987,0.196,1.241,0.689h1.067c-0.29-1.183-1.299-1.669-2.308-1.669c-1.335,0-2.591,0.922-2.591,2.605C132.201,39.315,133.449,40.237,134.792,40.237zM149.119,56.603h-21.782v3.794h21.782V56.603zM112.162,83.162h52.133V45.221h-52.133V83.162zM115.952,49.015h44.553v18.971h-33.167v3.794h33.167v7.588h-44.553V49.015zM183.26,60.397h21.782v-3.794H183.26V60.397zM168.085,83.162h52.133V45.221h-52.133V83.162zM171.875,71.78h33.167v-3.794h-33.167V49.015h44.553v30.353h-44.553V71.78zM239.182,71.78h21.782v-3.794h-21.782V71.78zM224.007,45.221v37.942h52.133V45.221H224.007zM272.35,79.368h-44.553V60.397h33.167v-3.794h-33.167v-7.588h44.553V79.368zM76.116,51.237L70.1,45.221H43.861v37.942h64.512V45.221H82.133L76.116,51.237zM104.582,49.015v30.353H93.197V56.603h-3.795v22.765H62.836V56.603h-3.795v22.765H47.656V49.015h20.872l7.588,7.588l7.588-7.588H104.582zM83.705,33.838H68.528l7.589,7.589L83.705,33.838z"/></svg>